<svg xmlns="http://www.w3.org/2000/svg" viewBox="0 0 32 32" width="32" height="32">
  <defs>
    <!-- Gradiente para o fundo -->
    <linearGradient id="bgGradient" x1="0%" y1="0%" x2="100%" y2="100%">
      <stop offset="0%" style="stop-color:#FF6B9D;stop-opacity:1" />
      <stop offset="100%" style="stop-color:#C44569;stop-opacity:1" />
    </linearGradient>
    
    <!-- Gradiente para os corações -->
    <linearGradient id="heartGradient" x1="0%" y1="0%" x2="100%" y2="100%">
      <stop offset="0%" style="stop-color:#FF8E9E;stop-opacity:1" />
      <stop offset="100%" style="stop-color:#FF6B9D;stop-opacity:1" />
    </linearGradient>
  </defs>
  
  <!-- Fundo circular -->
  <circle cx="16" cy="16" r="15" fill="url(#bgGradient)" stroke="#FF6B9D" stroke-width="1"/>
  
  <!-- Anéis de casamento -->
  <g opacity="0.8">
    <ellipse cx="16" cy="16" rx="8" ry="3" fill="none" stroke="#FFD700" stroke-width="2"/>
    <ellipse cx="16" cy="16" rx="6" ry="2.5" fill="none" stroke="#FFD700" stroke-width="1.5"/>
  </g>
  
  <!-- Coração principal -->
  <path d="M16 8c-2.5-4-8-2-8 3 0 4 8 8 8 8s8-4 8-8c0-5-5.5-7-8-3z" 
        fill="url(#heartGradient)" stroke="#FF6B9D" stroke-width="0.5"/>
  
  <!-- Coração secundário menor -->
  <g transform="translate(22, 6)">
    <path d="M0 0c-1.5-2-4-1-4 1.5 0 2 4 4 4 4s4-2 4-4c0-2.5-3-3.5-4-1.5z" 
          fill="#FFB6C1" stroke="#FF6B9D" stroke-width="0.3"/>
  </g>
  
  <!-- Coração terciário ainda menor -->
  <g transform="translate(6, 8)">
    <path d="M0 0c-1-1.5-3-0.8-3 1 0 1.5 3 3 3 3s3-1.5 3-3c0-1.8-2-2.5-3-1z" 
          fill="#FFC0CB" stroke="#FF6B9D" stroke-width="0.2"/>
  </g>
  
  <!-- Pequenas estrelas decorativas -->
  <g opacity="0.7">
    <circle cx="8" cy="8" r="0.5" fill="#FFD700"/>
    <circle cx="24" cy="10" r="0.4" fill="#FFD700"/>
    <circle cx="26" cy="20" r="0.3" fill="#FFD700"/>
  </g>
</svg> 